<svg viewBox="0 0 1024 1024" fill="currentColor" xmlns="http://www.w3.org/2000/svg">
  <path d="M736 432c0-123.712-100.288-224-224-224s-224 100.288-224 224v160c0 123.712 100.288 224 224 224s224-100.288 224-224V432z m-64 160c0 88.224-71.776 160-160 160s-160-71.776-160-160V432c0-88.224 71.776-160 160-160s160 71.776 160 160v160z" />
  <path d="M512 160c8.832 0 16-7.168 16-16V80c0-8.832-7.168-16-16-16s-16 7.168-16 16v64c0 8.832 7.168 16 16 16zM352 192c8.832 0 16-7.168 16-16v-64c0-8.832-7.168-16-16-16s-16 7.168-16 16v64c0 8.832 7.168 16 16 16zM672 192c8.832 0 16-7.168 16-16v-64c0-8.832-7.168-16-16-16s-16 7.168-16 16v64c0 8.832 7.168 16 16 16zM224 464c-8.832 0-16 7.168-16 16v64c0 8.832 7.168 16 16 16s16-7.168 16-16v-64c0-8.832-7.168-16-16-16zM800 464c-8.832 0-16 7.168-16 16v64c0 8.832 7.168 16 16 16s16-7.168 16-16v-64c0-8.832-7.168-16-16-16zM288 736c-8.832 0-16 7.168-16 16v64c0 8.832 7.168 16 16 16s16-7.168 16-16v-64c0-8.832-7.168-16-16-16zM736 736c-8.832 0-16 7.168-16 16v64c0 8.832 7.168 16 16 16s16-7.168 16-16v-64c0-8.832-7.168-16-16-16zM512 832c-8.832 0-16 7.168-16 16v64c0 8.832 7.168 16 16 16s16-7.168 16-16v-64c0-8.832-7.168-16-16-16z" />
  <path d="M448 384c-17.664 0-32 14.336-32 32s14.336 32 32 32 32-14.336 32-32-14.336-32-32-32zM576 384c-17.664 0-32 14.336-32 32s14.336 32 32 32 32-14.336 32-32-14.336-32-32-32z" />
  <path d="M448 512c-8.832 0-16 7.168-16 16s7.168 16 16 16h128c8.832 0 16-7.168 16-16s-7.168-16-16-16H448z" />
</svg>